<svg width="7" height="11" viewBox="0 0 7 11" fill="none" xmlns="http://www.w3.org/2000/svg">
<rect width="7" height="11" fill="#1E1E1E"/>
<path d="M6.45 11H4.935L4.665 10.46C4.445 10.66 4.235 10.8 4.035 10.88C3.845 10.96 3.555 11 3.165 11H1.86C1.42 10.58 1.07 10.03 0.81 9.35C0.56 8.67 0.435 7.91 0.435 7.07C0.435 6.22 0.56 5.5 0.81 4.91C1.07 4.32 1.435 3.795 1.905 3.335H3.195C3.725 3.335 4.145 3.475 4.455 3.755V0.499999H6.45V11ZM4.455 4.91H3.015C2.645 5.54 2.46 6.315 2.46 7.235C2.46 8.145 2.64 8.875 3 9.425H4.455V4.91Z" fill="#197163"/>
</svg>
